<?xml version="1.0" encoding="utf-8"?>
<svg viewBox="-2.182 258.439 500.173 250.292" xmlns="http://www.w3.org/2000/svg" xmlns:bx="https://boxy-svg.com">
  <defs>
    <linearGradient id="gradient-0" gradientUnits="userSpaceOnUse" x1="156.895" y1="127.407" x2="156.895" y2="378.183" gradientTransform="matrix(-0.999957, -0.009163, 0.002435, -0.265772, 404.384939, 544.082783)">
      <stop offset="0" style="stop-color: rgb(1, 0, 90);"/>
      <stop offset="1" style="stop-color: rgb(0, 2, 48);"/>
    </linearGradient>
  </defs>
  <rect x="-2.164" y="258.146" width="500.1" height="250.776" style="fill: url(#gradient-0); fill-opacity: 0.94;"/>
  <circle style="fill: rgb(253, 255, 222);" cx="92.393" cy="337.442" r="46.963"/>
  <path d="M 95.283 326.002 H 95.947 V 327.331 H 97.275 V 327.995 H 95.947 V 329.323 H 95.283 V 327.995 H 93.954 V 327.331 H 95.283 Z" style="fill: rgb(216, 216, 216);" transform="matrix(0.939793, 0.341743, -0.341743, 0.939793, 49.518105, 136.353073)" bx:shape="cross 93.954 326.002 3.321 3.321 0.664 0.664 0.5 1@92e9c522"/>
  <path d="M 95.283 326.002 H 95.947 V 327.331 H 97.275 V 327.995 H 95.947 V 329.323 H 95.283 V 327.995 H 93.954 V 327.331 H 95.283 Z" style="fill: rgb(216, 216, 216);" transform="matrix(0.939793, 0.341743, -0.341743, 0.939793, 230.215489, 111.542245)" bx:shape="cross 93.954 326.002 3.321 3.321 0.664 0.664 0.5 1@92e9c522"/>
  <path d="M 95.283 326.002 H 95.947 V 327.331 H 97.275 V 327.995 H 95.947 V 329.323 H 95.283 V 327.995 H 93.954 V 327.331 H 95.283 Z" style="fill: rgb(216, 216, 216);" transform="matrix(0.939793, 0.341743, -0.341743, 0.939793, 165.396126, 119.628544)" bx:shape="cross 93.954 326.002 3.321 3.321 0.664 0.664 0.5 1@92e9c522"/>
  <path d="M 95.283 326.002 H 95.947 V 327.331 H 97.275 V 327.995 H 95.947 V 329.323 H 95.283 V 327.995 H 93.954 V 327.331 H 95.283 Z" style="fill: rgb(216, 216, 216);" transform="matrix(0.939793, 0.341743, -0.341743, 0.939793, 118.060538, 90.879407)" bx:shape="cross 93.954 326.002 3.321 3.321 0.664 0.664 0.5 1@92e9c522"/>
  <path d="M 95.283 326.002 H 95.947 V 327.331 H 97.275 V 327.995 H 95.947 V 329.323 H 95.283 V 327.995 H 93.954 V 327.331 H 95.283 Z" style="fill: rgb(216, 216, 216);" transform="matrix(0.939793, 0.341743, -0.341743, 0.939793, 57.881877, 74.650922)" bx:shape="cross 93.954 326.002 3.321 3.321 0.664 0.664 0.5 1@92e9c522"/>
  <path d="M 95.283 326.002 H 95.947 V 327.331 H 97.275 V 327.995 H 95.947 V 329.323 H 95.283 V 327.995 H 93.954 V 327.331 H 95.283 Z" style="fill: rgb(216, 216, 216);" transform="matrix(0.939793, 0.341743, -0.341743, 0.939793, 108.024671, 143.782118)" bx:shape="cross 93.954 326.002 3.321 3.321 0.664 0.664 0.5 1@92e9c522"/>
  <path d="M 95.283 326.002 H 95.947 V 327.331 H 97.275 V 327.995 H 95.947 V 329.323 H 95.283 V 327.995 H 93.954 V 327.331 H 95.283 Z" style="fill: rgb(216, 216, 216);" transform="matrix(0.939793, 0.341743, -0.341743, 0.939793, 183.44951, 147.818819)" bx:shape="cross 93.954 326.002 3.321 3.321 0.664 0.664 0.5 1@92e9c522"/>
  <path d="M 95.283 326.002 H 95.947 V 327.331 H 97.275 V 327.995 H 95.947 V 329.323 H 95.283 V 327.995 H 93.954 V 327.331 H 95.283 Z" style="fill: rgb(216, 216, 216);" transform="matrix(0.939793, 0.341743, -0.341743, 0.939793, 188.186938, 76.796091)" bx:shape="cross 93.954 326.002 3.321 3.321 0.664 0.664 0.5 1@92e9c522"/>
  <path d="M 95.283 326.002 H 95.947 V 327.331 H 97.275 V 327.995 H 95.947 V 329.323 H 95.283 V 327.995 H 93.954 V 327.331 H 95.283 Z" style="fill: rgb(216, 216, 216);" transform="matrix(0.939793, 0.341743, -0.341743, 0.939793, 138.547119, 62.192604)" bx:shape="cross 93.954 326.002 3.321 3.321 0.664 0.664 0.5 1@92e9c522"/>
  <path d="M 95.283 326.002 H 95.947 V 327.331 H 97.275 V 327.995 H 95.947 V 329.323 H 95.283 V 327.995 H 93.954 V 327.331 H 95.283 Z" style="fill: rgb(216, 216, 216);" transform="matrix(0.939793, 0.341743, -0.341743, 0.939793, 54.780194, 36.491413)" bx:shape="cross 93.954 326.002 3.321 3.321 0.664 0.664 0.5 1@92e9c522"/>
  <path d="M 95.283 326.002 H 95.947 V 327.331 H 97.275 V 327.995 H 95.947 V 329.323 H 95.283 V 327.995 H 93.954 V 327.331 H 95.283 Z" style="fill: rgb(216, 216, 216);" transform="matrix(0.939793, 0.341743, -0.341743, 0.939793, 48.697199, -51.675474)" bx:shape="cross 93.954 326.002 3.321 3.321 0.664 0.664 0.5 1@92e9c522"/>
  <path d="M 95.283 326.002 H 95.947 V 327.331 H 97.275 V 327.995 H 95.947 V 329.323 H 95.283 V 327.995 H 93.954 V 327.331 H 95.283 Z" style="fill: rgb(216, 216, 216);" transform="matrix(0.939793, 0.341743, -0.341743, 0.939793, 36.958953, -7.400728)" bx:shape="cross 93.954 326.002 3.321 3.321 0.664 0.664 0.5 1@92e9c522"/>
  <path d="M 95.283 326.002 H 95.947 V 327.331 H 97.275 V 327.995 H 95.947 V 329.323 H 95.283 V 327.995 H 93.954 V 327.331 H 95.283 Z" style="fill: rgb(216, 216, 216);" transform="matrix(0.939793, 0.341743, -0.341743, 0.939793, 94.431434, 71.074207)" bx:shape="cross 93.954 326.002 3.321 3.321 0.664 0.664 0.5 1@92e9c522"/>
  <path d="M 95.283 326.002 H 95.947 V 327.331 H 97.275 V 327.995 H 95.947 V 329.323 H 95.283 V 327.995 H 93.954 V 327.331 H 95.283 Z" style="fill: rgb(216, 216, 216);" transform="matrix(0.939793, 0.341743, -0.341743, 0.939793, 179.017306, 35.145846)" bx:shape="cross 93.954 326.002 3.321 3.321 0.664 0.664 0.5 1@92e9c522"/>
  <path d="M 95.283 326.002 H 95.947 V 327.331 H 97.275 V 327.995 H 95.947 V 329.323 H 95.283 V 327.995 H 93.954 V 327.331 H 95.283 Z" style="fill: rgb(216, 216, 216);" transform="matrix(0.939793, 0.341743, -0.341743, 0.939793, 189.949502, -4.210917)" bx:shape="cross 93.954 326.002 3.321 3.321 0.664 0.664 0.5 1@92e9c522"/>
  <path d="M 95.283 326.002 H 95.947 V 327.331 H 97.275 V 327.995 H 95.947 V 329.323 H 95.283 V 327.995 H 93.954 V 327.331 H 95.283 Z" style="fill: rgb(216, 216, 216);" transform="matrix(0.939793, 0.341743, -0.341743, 0.939793, 228.132655, 33.434869)" bx:shape="cross 93.954 326.002 3.321 3.321 0.664 0.664 0.5 1@92e9c522"/>
  <path d="M 95.283 326.002 H 95.947 V 327.331 H 97.275 V 327.995 H 95.947 V 329.323 H 95.283 V 327.995 H 93.954 V 327.331 H 95.283 Z" style="fill: rgb(216, 216, 216);" transform="matrix(0.939793, 0.341743, -0.341743, 0.939793, 216.205256, 64.95682)" bx:shape="cross 93.954 326.002 3.321 3.321 0.664 0.664 0.5 1@92e9c522"/>
  <path d="M 95.283 326.002 H 95.947 V 327.331 H 97.275 V 327.995 H 95.947 V 329.323 H 95.283 V 327.995 H 93.954 V 327.331 H 95.283 Z" style="fill: rgb(216, 216, 216);" transform="matrix(0.939793, 0.341743, -0.341743, 0.939793, 233.370909, 90.286154)" bx:shape="cross 93.954 326.002 3.321 3.321 0.664 0.664 0.5 1@92e9c522"/>
  <path d="M 95.283 326.002 H 95.947 V 327.331 H 97.275 V 327.995 H 95.947 V 329.323 H 95.283 V 327.995 H 93.954 V 327.331 H 95.283 Z" style="fill: rgb(216, 216, 216);" transform="matrix(0.939793, 0.341743, -0.341743, 0.939793, 221.993774, 140.366613)" bx:shape="cross 93.954 326.002 3.321 3.321 0.664 0.664 0.5 1@92e9c522"/>
  <path d="M 95.283 326.002 H 95.947 V 327.331 H 97.275 V 327.995 H 95.947 V 329.323 H 95.283 V 327.995 H 93.954 V 327.331 H 95.283 Z" style="fill: rgb(216, 216, 216);" transform="matrix(0.939793, 0.341743, -0.341743, 0.939793, 87.639114, 117.066378)" bx:shape="cross 93.954 326.002 3.321 3.321 0.664 0.664 0.5 1@92e9c522"/>
  <path d="M 95.283 326.002 H 95.947 V 327.331 H 97.275 V 327.995 H 95.947 V 329.323 H 95.283 V 327.995 H 93.954 V 327.331 H 95.283 Z" style="fill: rgb(216, 216, 216);" transform="matrix(0.939793, 0.341743, -0.341743, 0.939793, 190.875922, -45.843966)" bx:shape="cross 93.954 326.002 3.321 3.321 0.664 0.664 0.5 1@92e9c522"/>
  <path d="M 95.283 326.002 H 95.947 V 327.331 H 97.275 V 327.995 H 95.947 V 329.323 H 95.283 V 327.995 H 93.954 V 327.331 H 95.283 Z" style="fill: rgb(216, 216, 216);" transform="matrix(0.939793, 0.341743, -0.341743, 0.939793, 142.652603, -69.427931)" bx:shape="cross 93.954 326.002 3.321 3.321 0.664 0.664 0.5 1@92e9c522"/>
  <path d="M 95.283 326.002 H 95.947 V 327.331 H 97.275 V 327.995 H 95.947 V 329.323 H 95.283 V 327.995 H 93.954 V 327.331 H 95.283 Z" style="fill: rgb(216, 216, 216);" transform="matrix(0.939793, 0.341743, -0.341743, 0.939793, 159.184163, -53.960358)" bx:shape="cross 93.954 326.002 3.321 3.321 0.664 0.664 0.5 1@92e9c522"/>
  <path d="M 95.283 326.002 H 95.947 V 327.331 H 97.275 V 327.995 H 95.947 V 329.323 H 95.283 V 327.995 H 93.954 V 327.331 H 95.283 Z" style="fill: rgb(216, 216, 216);" transform="matrix(0.939793, 0.341743, -0.341743, 0.939793, 96.245585, -58.538726)" bx:shape="cross 93.954 326.002 3.321 3.321 0.664 0.664 0.5 1@92e9c522"/>
  <path d="M 95.283 326.002 H 95.947 V 327.331 H 97.275 V 327.995 H 95.947 V 329.323 H 95.283 V 327.995 H 93.954 V 327.331 H 95.283 Z" style="fill: rgb(216, 216, 216);" transform="matrix(0.939793, 0.341743, -0.341743, 0.939793, 71.122601, -69.83633)" bx:shape="cross 93.954 326.002 3.321 3.321 0.664 0.664 0.5 1@92e9c522"/>
  <path d="M 95.283 326.002 H 95.947 V 327.331 H 97.275 V 327.995 H 95.947 V 329.323 H 95.283 V 327.995 H 93.954 V 327.331 H 95.283 Z" style="fill: rgb(216, 216, 216);" transform="matrix(0.939793, 0.341743, -0.341743, 0.939793, 218.081741, -58.620405)" bx:shape="cross 93.954 326.002 3.321 3.321 0.664 0.664 0.5 1@92e9c522"/>
  <path d="M 95.283 326.002 H 95.947 V 327.331 H 97.275 V 327.995 H 95.947 V 329.323 H 95.283 V 327.995 H 93.954 V 327.331 H 95.283 Z" style="fill: rgb(216, 216, 216);" transform="matrix(0.939793, 0.341743, -0.341743, 0.939793, 228.850577, -10.203634)" bx:shape="cross 93.954 326.002 3.321 3.321 0.664 0.664 0.5 1@92e9c522"/>
  <path d="M 95.283 326.002 H 95.947 V 327.331 H 97.275 V 327.995 H 95.947 V 329.323 H 95.283 V 327.995 H 93.954 V 327.331 H 95.283 Z" style="fill: rgb(216, 216, 216);" transform="matrix(0.939793, 0.341743, -0.341743, 0.939793, 208.179141, -24.091348)" bx:shape="cross 93.954 326.002 3.321 3.321 0.664 0.664 0.5 1@92e9c522"/>
  <path d="M 95.283 326.002 H 95.947 V 327.331 H 97.275 V 327.995 H 95.947 V 329.323 H 95.283 V 327.995 H 93.954 V 327.331 H 95.283 Z" style="fill: rgb(216, 216, 216);" transform="matrix(0.939793, 0.341743, -0.341743, 0.939793, 205.507352, 21.118416)" bx:shape="cross 93.954 326.002 3.321 3.321 0.664 0.664 0.5 1@92e9c522"/>
  <path d="M 95.283 326.002 H 95.947 V 327.331 H 97.275 V 327.995 H 95.947 V 329.323 H 95.283 V 327.995 H 93.954 V 327.331 H 95.283 Z" style="fill: rgb(216, 216, 216);" transform="matrix(0.939793, 0.341743, -0.341743, 0.939793, 261.309696, -57.496233)" bx:shape="cross 93.954 326.002 3.321 3.321 0.664 0.664 0.5 1@92e9c522"/>
  <path d="M 95.283 326.002 H 95.947 V 327.331 H 97.275 V 327.995 H 95.947 V 329.323 H 95.283 V 327.995 H 93.954 V 327.331 H 95.283 Z" style="fill: rgb(216, 216, 216);" transform="matrix(0.939793, 0.341743, -0.341743, 0.939793, 243.806577, -38.219803)" bx:shape="cross 93.954 326.002 3.321 3.321 0.664 0.664 0.5 1@92e9c522"/>
  <path d="M 95.283 326.002 H 95.947 V 327.331 H 97.275 V 327.995 H 95.947 V 329.323 H 95.283 V 327.995 H 93.954 V 327.331 H 95.283 Z" style="fill: rgb(216, 216, 216);" transform="matrix(0.939793, 0.341743, -0.341743, 0.939793, 249.732661, 8.539729)" bx:shape="cross 93.954 326.002 3.321 3.321 0.664 0.664 0.5 1@92e9c522"/>
  <path d="M 95.283 326.002 H 95.947 V 327.331 H 97.275 V 327.995 H 95.947 V 329.323 H 95.283 V 327.995 H 93.954 V 327.331 H 95.283 Z" style="fill: rgb(216, 216, 216);" transform="matrix(0.939793, 0.341743, -0.341743, 0.939793, 253.870387, 58.29132)" bx:shape="cross 93.954 326.002 3.321 3.321 0.664 0.664 0.5 1@92e9c522"/>
  <path d="M 95.283 326.002 H 95.947 V 327.331 H 97.275 V 327.995 H 95.947 V 329.323 H 95.283 V 327.995 H 93.954 V 327.331 H 95.283 Z" style="fill: rgb(216, 216, 216);" transform="matrix(0.939793, 0.341743, -0.341743, 0.939793, 252.913874, 97.450331)" bx:shape="cross 93.954 326.002 3.321 3.321 0.664 0.664 0.5 1@92e9c522"/>
  <path d="M 95.283 326.002 H 95.947 V 327.331 H 97.275 V 327.995 H 95.947 V 329.323 H 95.283 V 327.995 H 93.954 V 327.331 H 95.283 Z" style="fill: rgb(216, 216, 216);" transform="matrix(0.939793, 0.341743, -0.341743, 0.939793, 254.594758, 132.673667)" bx:shape="cross 93.954 326.002 3.321 3.321 0.664 0.664 0.5 1@92e9c522"/>
  <path d="M 95.283 326.002 H 95.947 V 327.331 H 97.275 V 327.995 H 95.947 V 329.323 H 95.283 V 327.995 H 93.954 V 327.331 H 95.283 Z" style="fill: rgb(216, 216, 216);" transform="matrix(0.939793, 0.341743, -0.341743, 0.939793, 192.574002, 109.934442)" bx:shape="cross 93.954 326.002 3.321 3.321 0.664 0.664 0.5 1@92e9c522"/>
  <path d="M 95.283 326.002 H 95.947 V 327.331 H 97.275 V 327.995 H 95.947 V 329.323 H 95.283 V 327.995 H 93.954 V 327.331 H 95.283 Z" style="fill: rgb(216, 216, 216);" transform="matrix(0.939793, 0.341743, -0.341743, 0.939793, 508.973572, 160.294333)" bx:shape="cross 93.954 326.002 3.321 3.321 0.664 0.664 0.5 1@92e9c522"/>
  <path d="M 95.283 326.002 H 95.947 V 327.331 H 97.275 V 327.995 H 95.947 V 329.323 H 95.283 V 327.995 H 93.954 V 327.331 H 95.283 Z" style="fill: rgb(216, 216, 216);" transform="matrix(0.939793, 0.341743, -0.341743, 0.939793, 460.528857, 151.322453)" bx:shape="cross 93.954 326.002 3.321 3.321 0.664 0.664 0.5 1@92e9c522"/>
  <path d="M 95.283 326.002 H 95.947 V 327.331 H 97.275 V 327.995 H 95.947 V 329.323 H 95.283 V 327.995 H 93.954 V 327.331 H 95.283 Z" style="fill: rgb(216, 216, 216);" transform="matrix(0.939793, 0.341743, -0.341743, 0.939793, 432.910341, 154.654128)" bx:shape="cross 93.954 326.002 3.321 3.321 0.664 0.664 0.5 1@92e9c522"/>
  <path d="M 95.283 326.002 H 95.947 V 327.331 H 97.275 V 327.995 H 95.947 V 329.323 H 95.283 V 327.995 H 93.954 V 327.331 H 95.283 Z" style="fill: rgb(216, 216, 216);" transform="matrix(0.939793, 0.341743, -0.341743, 0.939793, 383.27912, 154.372548)" bx:shape="cross 93.954 326.002 3.321 3.321 0.664 0.664 0.5 1@92e9c522"/>
  <path d="M 95.283 326.002 H 95.947 V 327.331 H 97.275 V 327.995 H 95.947 V 329.323 H 95.283 V 327.995 H 93.954 V 327.331 H 95.283 Z" style="fill: rgb(216, 216, 216);" transform="matrix(0.939793, 0.341743, -0.341743, 0.939793, 328.7944, 156.120066)" bx:shape="cross 93.954 326.002 3.321 3.321 0.664 0.664 0.5 1@92e9c522"/>
  <path d="M 95.283 326.002 H 95.947 V 327.331 H 97.275 V 327.995 H 95.947 V 329.323 H 95.283 V 327.995 H 93.954 V 327.331 H 95.283 Z" style="fill: rgb(216, 216, 216);" transform="matrix(0.939793, 0.341743, -0.341743, 0.939793, 328.796549, 139.201601)" bx:shape="cross 93.954 326.002 3.321 3.321 0.664 0.664 0.5 1@92e9c522"/>
  <path d="M 95.283 326.002 H 95.947 V 327.331 H 97.275 V 327.995 H 95.947 V 329.323 H 95.283 V 327.995 H 93.954 V 327.331 H 95.283 Z" style="fill: rgb(216, 216, 216);" transform="matrix(0.939793, 0.341743, -0.341743, 0.939793, 297.771125, 146.0799)" bx:shape="cross 93.954 326.002 3.321 3.321 0.664 0.664 0.5 1@92e9c522"/>
  <path d="M 95.283 326.002 H 95.947 V 327.331 H 97.275 V 327.995 H 95.947 V 329.323 H 95.283 V 327.995 H 93.954 V 327.331 H 95.283 Z" style="fill: rgb(216, 216, 216);" transform="matrix(0.939793, 0.341743, -0.341743, 0.939793, 279.72419, 152.528304)" bx:shape="cross 93.954 326.002 3.321 3.321 0.664 0.664 0.5 1@92e9c522"/>
  <path d="M 95.283 326.002 H 95.947 V 327.331 H 97.275 V 327.995 H 95.947 V 329.323 H 95.283 V 327.995 H 93.954 V 327.331 H 95.283 Z" style="fill: rgb(216, 216, 216);" transform="matrix(0.939793, 0.341743, -0.341743, 0.939793, 249.837985, 157.732167)" bx:shape="cross 93.954 326.002 3.321 3.321 0.664 0.664 0.5 1@92e9c522"/>
  <path d="M 95.283 326.002 H 95.947 V 327.331 H 97.275 V 327.995 H 95.947 V 329.323 H 95.283 V 327.995 H 93.954 V 327.331 H 95.283 Z" style="fill: rgb(216, 216, 216);" transform="matrix(0.939793, 0.341743, -0.341743, 0.939793, 294.063293, -66.272512)" bx:shape="cross 93.954 326.002 3.321 3.321 0.664 0.664 0.5 1@92e9c522"/>
  <path d="M 95.283 326.002 H 95.947 V 327.331 H 97.275 V 327.995 H 95.947 V 329.323 H 95.283 V 327.995 H 93.954 V 327.331 H 95.283 Z" style="fill: rgb(216, 216, 216);" transform="matrix(0.939793, 0.341743, -0.341743, 0.939793, 335.434107, -56.739621)" bx:shape="cross 93.954 326.002 3.321 3.321 0.664 0.664 0.5 1@92e9c522"/>
  <path d="M 95.283 326.002 H 95.947 V 327.331 H 97.275 V 327.995 H 95.947 V 329.323 H 95.283 V 327.995 H 93.954 V 327.331 H 95.283 Z" style="fill: rgb(216, 216, 216);" transform="matrix(0.939793, 0.341743, -0.341743, 0.939793, 362.603385, -71.852532)" bx:shape="cross 93.954 326.002 3.321 3.321 0.664 0.664 0.5 1@92e9c522"/>
  <path d="M 95.283 326.002 H 95.947 V 327.331 H 97.275 V 327.995 H 95.947 V 329.323 H 95.283 V 327.995 H 93.954 V 327.331 H 95.283 Z" style="fill: rgb(216, 216, 216);" transform="matrix(0.939793, 0.341743, -0.341743, 0.939793, 408.043143, -66.399331)" bx:shape="cross 93.954 326.002 3.321 3.321 0.664 0.664 0.5 1@92e9c522"/>
  <path d="M 95.283 326.002 H 95.947 V 327.331 H 97.275 V 327.995 H 95.947 V 329.323 H 95.283 V 327.995 H 93.954 V 327.331 H 95.283 Z" style="fill: rgb(216, 216, 216);" transform="matrix(0.939793, 0.341743, -0.341743, 0.939793, 406.68038, -54.966309)" bx:shape="cross 93.954 326.002 3.321 3.321 0.664 0.664 0.5 1@92e9c522"/>
  <path d="M 95.283 326.002 H 95.947 V 327.331 H 97.275 V 327.995 H 95.947 V 329.323 H 95.283 V 327.995 H 93.954 V 327.331 H 95.283 Z" style="fill: rgb(216, 216, 216);" transform="matrix(0.939793, 0.341743, -0.341743, 0.939793, 392.700239, -55.196302)" bx:shape="cross 93.954 326.002 3.321 3.321 0.664 0.664 0.5 1@92e9c522"/>
  <path d="M 95.283 326.002 H 95.947 V 327.331 H 97.275 V 327.995 H 95.947 V 329.323 H 95.283 V 327.995 H 93.954 V 327.331 H 95.283 Z" style="fill: rgb(216, 216, 216);" transform="matrix(0.939793, 0.341743, -0.341743, 0.939793, 449.517132, -71.063677)" bx:shape="cross 93.954 326.002 3.321 3.321 0.664 0.664 0.5 1@92e9c522"/>
  <path d="M 95.283 326.002 H 95.947 V 327.331 H 97.275 V 327.995 H 95.947 V 329.323 H 95.283 V 327.995 H 93.954 V 327.331 H 95.283 Z" style="fill: rgb(216, 216, 216);" transform="matrix(0.939793, 0.341743, -0.341743, 0.939793, 472.196171, -62.059554)" bx:shape="cross 93.954 326.002 3.321 3.321 0.664 0.664 0.5 1@92e9c522"/>
  <path d="M 95.283 326.002 H 95.947 V 327.331 H 97.275 V 327.995 H 95.947 V 329.323 H 95.283 V 327.995 H 93.954 V 327.331 H 95.283 Z" style="fill: rgb(216, 216, 216);" transform="matrix(0.939793, 0.341743, -0.341743, 0.939793, 492.846112, -66.186533)" bx:shape="cross 93.954 326.002 3.321 3.321 0.664 0.664 0.5 1@92e9c522"/>
  <path d="M 95.283 326.002 H 95.947 V 327.331 H 97.275 V 327.995 H 95.947 V 329.323 H 95.283 V 327.995 H 93.954 V 327.331 H 95.283 Z" style="fill: rgb(216, 216, 216);" transform="matrix(0.939793, 0.341743, -0.341743, 0.939793, 504.956216, -46.684408)" bx:shape="cross 93.954 326.002 3.321 3.321 0.664 0.664 0.5 1@92e9c522"/>
  <path d="M 95.283 326.002 H 95.947 V 327.331 H 97.275 V 327.995 H 95.947 V 329.323 H 95.283 V 327.995 H 93.954 V 327.331 H 95.283 Z" style="fill: rgb(216, 216, 216);" transform="matrix(0.939793, 0.341743, -0.341743, 0.939793, 504.433895, -23.702294)" bx:shape="cross 93.954 326.002 3.321 3.321 0.664 0.664 0.5 1@92e9c522"/>
  <path d="M 95.283 326.002 H 95.947 V 327.331 H 97.275 V 327.995 H 95.947 V 329.323 H 95.283 V 327.995 H 93.954 V 327.331 H 95.283 Z" style="fill: rgb(216, 216, 216);" transform="matrix(0.939793, 0.341743, -0.341743, 0.939793, 497.484664, -23.846309)" bx:shape="cross 93.954 326.002 3.321 3.321 0.664 0.664 0.5 1@92e9c522"/>
  <path d="M 95.283 326.002 H 95.947 V 327.331 H 97.275 V 327.995 H 95.947 V 329.323 H 95.283 V 327.995 H 93.954 V 327.331 H 95.283 Z" style="fill: rgb(216, 216, 216);" transform="matrix(0.939793, 0.341743, -0.341743, 0.939793, 504.163062, 5.633648)" bx:shape="cross 93.954 326.002 3.321 3.321 0.664 0.664 0.5 1@92e9c522"/>
  <path d="M 95.283 326.002 H 95.947 V 327.331 H 97.275 V 327.995 H 95.947 V 329.323 H 95.283 V 327.995 H 93.954 V 327.331 H 95.283 Z" style="fill: rgb(216, 216, 216);" transform="matrix(0.939793, 0.341743, -0.341743, 0.939793, 512.642714, 33.645517)" bx:shape="cross 93.954 326.002 3.321 3.321 0.664 0.664 0.5 1@92e9c522"/>
  <path d="M 95.283 326.002 H 95.947 V 327.331 H 97.275 V 327.995 H 95.947 V 329.323 H 95.283 V 327.995 H 93.954 V 327.331 H 95.283 Z" style="fill: rgb(216, 216, 216);" transform="matrix(0.939793, 0.341743, -0.341743, 0.939793, 503.266734, 58.097867)" bx:shape="cross 93.954 326.002 3.321 3.321 0.664 0.664 0.5 1@92e9c522"/>
  <path d="M 95.283 326.002 H 95.947 V 327.331 H 97.275 V 327.995 H 95.947 V 329.323 H 95.283 V 327.995 H 93.954 V 327.331 H 95.283 Z" style="fill: rgb(216, 216, 216);" transform="matrix(0.939793, 0.341743, -0.341743, 0.939793, 502.424142, 33.123196)" bx:shape="cross 93.954 326.002 3.321 3.321 0.664 0.664 0.5 1@92e9c522"/>
  <path d="M 95.283 326.002 H 95.947 V 327.331 H 97.275 V 327.995 H 95.947 V 329.323 H 95.283 V 327.995 H 93.954 V 327.331 H 95.283 Z" style="fill: rgb(216, 216, 216);" transform="matrix(0.939793, 0.341743, -0.341743, 0.939793, 504.896031, 77.466725)" bx:shape="cross 93.954 326.002 3.321 3.321 0.664 0.664 0.5 1@92e9c522"/>
  <path d="M 95.283 326.002 H 95.947 V 327.331 H 97.275 V 327.995 H 95.947 V 329.323 H 95.283 V 327.995 H 93.954 V 327.331 H 95.283 Z" style="fill: rgb(216, 216, 216);" transform="matrix(0.939793, 0.341743, -0.341743, 0.939793, 509.336832, 96.384195)" bx:shape="cross 93.954 326.002 3.321 3.321 0.664 0.664 0.5 1@92e9c522"/>
  <path d="M 95.283 326.002 H 95.947 V 327.331 H 97.275 V 327.995 H 95.947 V 329.323 H 95.283 V 327.995 H 93.954 V 327.331 H 95.283 Z" style="fill: rgb(216, 216, 216);" transform="matrix(0.939793, 0.341743, -0.341743, 0.939793, 499.040879, 116.771901)" bx:shape="cross 93.954 326.002 3.321 3.321 0.664 0.664 0.5 1@92e9c522"/>
  <path d="M 95.283 326.002 H 95.947 V 327.331 H 97.275 V 327.995 H 95.947 V 329.323 H 95.283 V 327.995 H 93.954 V 327.331 H 95.283 Z" style="fill: rgb(216, 216, 216);" transform="matrix(0.939793, 0.341743, -0.341743, 0.939793, 492.987977, 142.973918)" bx:shape="cross 93.954 326.002 3.321 3.321 0.664 0.664 0.5 1@92e9c522"/>
  <path d="M 95.283 326.002 H 95.947 V 327.331 H 97.275 V 327.995 H 95.947 V 329.323 H 95.283 V 327.995 H 93.954 V 327.331 H 95.283 Z" style="fill: rgb(216, 216, 216);" transform="matrix(0.939793, 0.341743, -0.341743, 0.939793, 485.724924, 156.878828)" bx:shape="cross 93.954 326.002 3.321 3.321 0.664 0.664 0.5 1@92e9c522"/>
  <path d="M 95.283 326.002 H 95.947 V 327.331 H 97.275 V 327.995 H 95.947 V 329.323 H 95.283 V 327.995 H 93.954 V 327.331 H 95.283 Z" style="fill: rgb(216, 216, 216);" transform="matrix(0.939793, 0.341743, -0.341743, 0.939793, 507.610809, 147.685552)" bx:shape="cross 93.954 326.002 3.321 3.321 0.664 0.664 0.5 1@92e9c522"/>
  <path d="M 95.283 326.002 H 95.947 V 327.331 H 97.275 V 327.995 H 95.947 V 329.323 H 95.283 V 327.995 H 93.954 V 327.331 H 95.283 Z" style="fill: rgb(216, 216, 216);" transform="matrix(0.939793, 0.341743, -0.341743, 0.939793, 146.816123, 147.317993)" bx:shape="cross 93.954 326.002 3.321 3.321 0.664 0.664 0.5 1@92e9c522"/>
  <path d="M 95.283 326.002 H 95.947 V 327.331 H 97.275 V 327.995 H 95.947 V 329.323 H 95.283 V 327.995 H 93.954 V 327.331 H 95.283 Z" style="fill: rgb(216, 216, 216);" transform="matrix(0.939793, 0.341743, -0.341743, 0.939793, 134.652283, 121.778012)" bx:shape="cross 93.954 326.002 3.321 3.321 0.664 0.664 0.5 1@92e9c522"/>
  <path d="M 95.283 326.002 H 95.947 V 327.331 H 97.275 V 327.995 H 95.947 V 329.323 H 95.283 V 327.995 H 93.954 V 327.331 H 95.283 Z" style="fill: rgb(216, 216, 216);" transform="matrix(0.939793, 0.341743, -0.341743, 0.939793, 162.741533, 83.046745)" bx:shape="cross 93.954 326.002 3.321 3.321 0.664 0.664 0.5 1@92e9c522"/>
</svg>