<?xml version="1.0" encoding="utf-8"?>
<svg viewBox="0 244.396 500.434 255.604" xmlns="http://www.w3.org/2000/svg">
  <rect x="0.442" y="244.399" width="499.5" height="254.244" style="fill: rgb(3, 0, 30);"/>
  <line style="stroke: rgb(0, 0, 0);" x1="-0.6811989401741485" y1="461.8528814380734" x2="500.24216702359075" y2="459.99288901939474"/>
  <polyline style="stroke: rgb(0, 0, 0); fill: rgb(96, 96, 96);" points="0.508 460.711 62.439 317.875 121.985 460.599"/>
  <polyline style="stroke: rgb(0, 0, 0); fill: rgb(57, 57, 57);" points="75.312 348.46 96.967 294.874 177.689 461.22 122.046 460.967"/>
  <polyline style="stroke: rgb(0, 0, 0); fill: rgb(255, 255, 255);" points="39.05 372.496 48.187 386.41 56.694 373.214 64.163 385.14 71.415 373.509 77.577 384.869 84.799 372.897 62.394 318.111 38.919 372.57"/>
  <polyline style="stroke: rgb(0, 0, 0); fill: rgb(255, 255, 255);" points="74.238 348.013 78.549 358.957 87.931 349.569 97.066 360.304 105.906 349.066 116.77 359.433 124.389 348.694 97.22 293.817 74.211 347.888"/>
  <rect x="0.522" y="460.419" width="499.292" height="39.467" style="fill: rgb(0, 21, 1);"/>
  <polyline style="stroke: rgb(0, 0, 0); fill: rgb(115, 115, 115);" points="378.041 460.167 439.972 317.331 499.518 460.055"/>
  <polyline style="stroke: rgb(0, 0, 0); fill: rgb(255, 255, 255);" points="416.929 370.06 426.066 383.974 434.573 370.778 442.042 382.704 449.294 371.073 455.456 382.433 462.678 370.461 440.273 315.675 416.798 370.134"/>
  <polyline style="stroke: rgb(0, 0, 0); fill: rgb(57, 57, 57);" points="319.513 407.521 342.093 460.911 426.262 295.174 368.243 295.426" transform="matrix(-1, 0, 0, -1, 745.775024, 756.085022)"/>
  <polyline style="stroke: rgb(0, 0, 0); fill: rgb(255, 255, 255);" points="378.01 303.36 382.22 292.416 391.384 301.804 400.305 291.069 408.938 302.307 419.549 291.94 426.989 302.679 400.455 357.556 377.984 303.485" transform="matrix(-1, 0, 0, -1, 804.973022, 648.625)"/>
  <circle style="fill: rgb(255, 243, 166);" cx="149.867" cy="287.602" r="21.591" transform="matrix(1.217831, 0, 0, 1.210129, -130.894058, -66.058662)"/>
  <circle style="fill: rgb(255, 255, 255);" cx="144.545" cy="329.376" r="2.534"/>
  <circle style="fill: rgb(255, 255, 255);" cx="144.545" cy="329.376" r="2.534" transform="matrix(1, 0, 0, 1, 66.868813, -1.698033)"/>
  <circle style="fill: rgba(255, 255, 255, 0.55);" cx="144.545" cy="329.376" r="2.534" transform="matrix(1, 0, 0, 1, 68.460052, -39.432728)"/>
  <circle style="fill: rgb(255, 255, 255);" cx="144.545" cy="329.376" r="2.534" transform="matrix(1, 0, 0, 1, 173.481766, 22.008223)"/>
  <circle style="fill: rgb(255, 255, 255);" cx="144.545" cy="329.376" r="2.534" transform="matrix(1, 0, 0, 1, 99.361473, 63.494835)"/>
  <circle style="fill: rgb(255, 255, 255);" cx="144.545" cy="329.376" r="2.534" transform="matrix(1, 0, 0, 1, 49.83884, 79.644035)"/>
  <circle style="fill: rgb(255, 255, 255);" cx="144.545" cy="329.376" r="2.534" transform="matrix(1, 0, 0, 1, 18.418539, 43.926331)"/>
  <ellipse style="fill: rgb(3, 0, 30);" cx="59.714" cy="277.403" rx="24.506" ry="27.177"/>
  <circle style="fill: rgb(255, 255, 255);" cx="144.545" cy="329.376" r="2.534" transform="matrix(1, 0, 0, 1, 115.609131, 10.973332)"/>
  <circle style="fill: rgb(255, 255, 255);" cx="144.545" cy="329.376" r="2.534" transform="matrix(1, 0, 0, 1, 160.432556, 102.498795)"/>
  <circle style="fill: rgb(255, 255, 255);" cx="144.545" cy="329.376" r="2.534" transform="matrix(1, 0, 0, 1, 327.054871, -42.298553)"/>
  <circle style="fill: rgb(255, 255, 255);" cx="144.545" cy="329.376" r="2.534" transform="matrix(1, 0, 0, 1, 324.995331, 31.212391)"/>
  <circle style="fill: rgb(255, 255, 255);" cx="144.545" cy="329.376" r="2.534" transform="matrix(1, 0, 0, 1, 273.889435, -46.933899)"/>
  <circle style="fill: rgb(255, 255, 255);" cx="144.545" cy="329.376" r="2.534" transform="matrix(1, 0, 0, 1, 282.428375, -4.060942)"/>
  <circle style="fill: rgb(255, 255, 255);" cx="144.545" cy="329.376" r="2.534" transform="matrix(1, 0, 0, 1, 320.293457, -71.904099)"/>
  <circle style="fill: rgb(255, 255, 255);" cx="144.545" cy="329.376" r="2.534" transform="matrix(1, 0, 0, 1, 200.109726, -62.367313)"/>
  <circle style="fill: rgb(255, 255, 255);" cx="144.545" cy="329.376" r="2.534" transform="matrix(1, 0, 0, 1, 217.126404, -9.835167)"/>
  <circle style="fill: rgb(255, 255, 255);" cx="144.545" cy="329.376" r="2.534" transform="matrix(1, 0, 0, 1, 121.910217, -60.682941)"/>
  <circle style="fill: rgb(255, 255, 255);" cx="144.545" cy="329.376" r="2.534" transform="matrix(1, 0, 0, 1, 154.575836, -22.589022)"/>
  <circle style="fill: rgb(255, 255, 255);" cx="144.545" cy="329.376" r="2.534" transform="matrix(1, 0, 0, 1, -35.361584, -68.985054)"/>
  <circle style="fill: rgb(255, 255, 255);" cx="144.545" cy="329.376" r="2.534" transform="matrix(1, 0, 0, 1, -112.475433, -2.993907)"/>
  <circle style="fill: rgb(255, 255, 255);" cx="144.545" cy="329.376" r="2.534" transform="matrix(1, 0, 0, 1, -135.567017, -66.348068)"/>
  <circle style="fill: rgb(255, 255, 255);" cx="144.545" cy="329.376" r="2.534" transform="matrix(1, 0, 0, 1, -131.63681, 22.77457)"/>
  <circle style="fill: rgb(255, 255, 255);" cx="144.545" cy="329.376" r="2.534" transform="matrix(1, 0, 0, 1, -135.463242, 80.189529)"/>
  <circle style="fill: rgb(255, 255, 255);" cx="144.545" cy="329.376" r="2.534" transform="matrix(1, 0, 0, 1, 36.943958, 123.964546)"/>
  <circle style="fill: rgb(255, 255, 255);" cx="144.545" cy="329.376" r="2.534" transform="matrix(1, 0, 0, 1, 344.41748, 88.951981)"/>
  <circle style="fill: rgb(255, 255, 255);" cx="144.545" cy="329.376" r="2.534" transform="matrix(1, 0, 0, 1, 346.559509, 10.377283)"/>
  <circle style="fill: rgb(255, 255, 255);" cx="227.047" cy="362.616" r="1.35"/>
  <circle style="fill: rgb(255, 255, 255);" cx="227.047" cy="362.616" r="1.35" transform="matrix(1, 0, 0, 1, 98.156319, 39.310009)"/>
  <circle style="fill: rgb(255, 255, 255);" cx="227.047" cy="362.616" r="1.35" transform="matrix(1, 0, 0, 1, 79.471245, 91.645248)"/>
  <circle style="fill: rgb(255, 255, 255);" cx="227.047" cy="362.616" r="1.35" transform="matrix(1, 0, 0, 1, 19.741272, 82.015327)"/>
  <circle style="fill: rgb(255, 255, 255);" cx="227.047" cy="362.616" r="1.35" transform="matrix(1, 0, 0, 1, -9.952082, 61.161594)"/>
  <circle style="fill: rgb(255, 255, 255);" cx="227.047" cy="362.616" r="1.35" transform="matrix(1, 0, 0, 1, -205.751541, -45.110764)"/>
  <circle style="fill: rgb(255, 255, 255);" cx="227.047" cy="362.616" r="1.35" transform="matrix(1, 0, 0, 1, -204.59137, 20.151291)"/>
  <circle style="fill: rgb(255, 255, 255);" cx="227.047" cy="362.616" r="1.35" transform="matrix(1, 0, 0, 1, 255.188644, -47.12775)"/>
  <circle style="fill: rgb(255, 255, 255);" cx="227.047" cy="362.616" r="1.35" transform="matrix(1, 0, 0, 1, 255.366928, 0.226221)"/>
  <circle style="fill: rgb(255, 255, 255);" cx="227.047" cy="362.616" r="1.35" transform="matrix(1, 0, 0, 1, -77.441338, -101.213882)"/>
  <circle style="fill: rgb(255, 255, 255);" cx="227.047" cy="362.616" r="1.35" transform="matrix(1, 0, 0, 1, -113.669945, -66.028358)"/>
  <circle style="fill: rgb(255, 255, 255);" cx="227.047" cy="362.616" r="1.35" transform="matrix(1, 0, 0, 1, -139.967941, -99.239471)"/>
  <circle style="fill: rgb(255, 255, 255);" cx="227.047" cy="362.616" r="1.35" transform="matrix(1, 0, 0, 1, 175.347336, -100.625816)"/>
  <circle style="fill: rgb(255, 255, 255);" cx="227.047" cy="362.616" r="1.35" transform="matrix(1, 0, 0, 1, -60.411362, 24.121403)"/>
  <circle style="fill: rgb(255, 255, 255);" cx="227.047" cy="362.616" r="1.35" transform="matrix(1, 0, 0, 1, -72.936378, -31.154165)"/>
</svg>